<svg width="30" height="24" viewBox="0 0 30 24" fill="none" xmlns="http://www.w3.org/2000/svg">
<path d="M25.3963 2.46219C23.4842 1.58486 21.4338 0.938458 19.2899 0.568204C19.2509 0.561055 19.2119 0.578927 19.1918 0.61461C18.9281 1.08365 18.636 1.69549 18.4314 2.17643C16.1256 1.83119 13.8315 1.83119 11.573 2.17643C11.3683 1.68482 11.0657 1.08365 10.8007 0.61461C10.7807 0.580098 10.7416 0.562227 10.7026 0.568204C8.55995 0.937227 6.50952 1.58363 4.5962 2.46219C4.57962 2.46934 4.56544 2.48123 4.556 2.4967C0.666783 8.30715 -0.398686 13.9748 0.12397 19.5721C0.126314 19.5995 0.141724 19.6257 0.162993 19.6423C2.72899 21.5268 5.21465 22.6708 7.65409 23.4291C7.69311 23.441 7.73448 23.4267 7.75932 23.3946C8.33635 22.6065 8.85075 21.7756 9.29178 20.9018C9.3178 20.8507 9.29296 20.79 9.23975 20.7697C8.42383 20.4602 7.64694 20.0828 6.89958 19.6543C6.84046 19.6198 6.83571 19.5352 6.89014 19.4947C7.04741 19.3769 7.20473 19.2543 7.35491 19.1305C7.3821 19.1079 7.41995 19.1031 7.45188 19.1173C12.3616 21.359 17.6769 21.359 22.5286 19.1173C22.5606 19.1019 22.5984 19.1067 22.6268 19.1292C22.777 19.253 22.9343 19.3769 23.0927 19.4947C23.1471 19.5352 23.1435 19.6197 23.0845 19.6542C22.3371 20.0911 21.5602 20.4601 20.7431 20.7685C20.6899 20.7887 20.6662 20.8506 20.6923 20.9018C21.1428 21.7743 21.6572 22.6053 22.2236 23.3933C22.2473 23.4267 22.2898 23.441 22.3288 23.429C24.7801 22.6708 27.2658 21.5267 29.8318 19.6423C29.8543 19.6256 29.8684 19.6006 29.8708 19.5733C30.4963 13.1021 28.8231 7.48092 25.4352 2.49781C25.427 2.48123 25.4129 2.46934 25.3963 2.46219ZM10.0251 16.1639C8.54694 16.1639 7.32895 14.8069 7.32895 13.1403C7.32895 11.4736 8.52327 10.1166 10.0251 10.1166C11.5386 10.1166 12.7448 11.4856 12.7212 13.1403C12.7212 14.8069 11.5268 16.1639 10.0251 16.1639ZM19.9935 16.1639C18.5154 16.1639 17.2974 14.8069 17.2974 13.1403C17.2974 11.4736 18.4917 10.1166 19.9935 10.1166C21.5071 10.1166 22.7132 11.4856 22.6896 13.1403C22.6896 14.8069 21.5071 16.1639 19.9935 16.1639Z" fill="white"/>
</svg>
